<svg width="30" height="30" viewBox="0 0 30 30" fill="none" xmlns="http://www.w3.org/2000/svg">
<path d="M15 20C17.7614 20 20 17.7614 20 15C20 12.2386 17.7614 10 15 10C12.2386 10 10 12.2386 10 15C10 17.7614 12.2386 20 15 20Z" fill="white"/>
<path d="M21.1538 0H8.84615C3.96923 0 0 3.96923 0 8.84615V21.1538C0 26.0308 3.96923 30 8.84615 30H21.1538C26.0308 30 30 26.0308 30 21.1538V8.84615C30 3.96923 26.0308 0 21.1538 0ZM15 22.3077C10.9692 22.3077 7.69231 19.0308 7.69231 15C7.69231 10.9692 10.9692 7.69231 15 7.69231C19.0308 7.69231 22.3077 10.9692 22.3077 15C22.3077 19.0308 19.0308 22.3077 15 22.3077ZM23.6462 8.46154C22.4923 8.46154 21.5385 7.52308 21.5385 6.35385C21.5385 5.18462 22.4769 4.24615 23.6462 4.24615C24.8154 4.24615 25.7538 5.18462 25.7538 6.35385C25.7538 7.52308 24.8154 8.46154 23.6462 8.46154Z" fill="white"/>
</svg>
