<svg width="253" height="30" viewBox="0 0 253 30" fill="none" xmlns="http://www.w3.org/2000/svg">
<path d="M11.935 0.423765L6.86009 29.5964H0L5.05481 0.423765H11.935ZM20.841 12.5657L19.8983 17.9754H6.90021L7.84297 12.5657H20.841ZM24.0504 0.423765L23.1077 5.85356H8.98632L9.94914 0.423765H24.0504Z" fill="white"/>
<path d="M34.14 0.423765L29.0852 29.5964H22.2251L27.3 0.423765H34.14Z" fill="white"/>
<path d="M62.5833 0.423765L57.5084 29.5964H50.8489L43.8886 11.1832L40.6792 29.5964H33.8191L38.8739 0.423765H45.5735L52.5339 18.837L55.7232 0.423765H62.5833Z" fill="white"/>
<path d="M80.0344 0.423765L74.9796 29.5964H68.0995L73.1743 0.423765H80.0344ZM88.5594 0.423765L87.6166 5.85356H63.8871L64.85 0.423765H88.5594Z" fill="white"/>
<path d="M106.853 24.1867L105.91 29.5964H90.7659L91.7086 24.1867H106.853ZM98.308 0.423765L93.2331 29.5964H86.373L91.4278 0.423765H98.308ZM107.013 12.0047L106.111 17.2341H92.9122L93.8349 12.0047H107.013ZM111.025 0.423765L110.082 5.85356H94.8779L95.8407 0.423765H111.025Z" fill="white"/>
<path d="M126.35 19.7386L133.07 19.6585C132.883 21.8758 132.167 23.7659 130.923 25.3287C129.693 26.8782 128.135 28.0536 126.25 28.8551C124.378 29.6565 122.378 30.0372 120.252 29.9971C118.233 29.9571 116.535 29.543 115.157 28.7549C113.78 27.9535 112.697 26.8849 111.908 25.5491C111.119 24.2 110.597 22.6906 110.343 21.0209C110.089 19.3379 110.076 17.6014 110.303 15.8115L110.524 14.2287C110.791 12.372 111.286 10.5888 112.008 8.87902C112.73 7.15591 113.673 5.61981 114.836 4.27071C116.013 2.92161 117.411 1.86637 119.029 1.10499C120.647 0.330263 122.479 -0.0370669 124.525 0.00300542C126.704 0.0430777 128.557 0.497231 130.081 1.36546C131.619 2.2337 132.809 3.44922 133.651 5.01205C134.507 6.57487 134.989 8.41819 135.096 10.542L128.256 10.522C128.296 9.49347 128.196 8.61188 127.955 7.87722C127.714 7.14256 127.286 6.57487 126.671 6.17414C126.069 5.76006 125.22 5.53299 124.124 5.49291C122.933 5.45284 121.937 5.69995 121.135 6.23425C120.346 6.75519 119.704 7.45646 119.209 8.33805C118.714 9.21964 118.333 10.1747 118.066 11.2032C117.812 12.2317 117.618 13.2269 117.484 14.1886L117.284 15.8316C117.19 16.6197 117.103 17.5079 117.023 18.4964C116.943 19.4715 116.976 20.4132 117.123 21.3215C117.27 22.2164 117.611 22.9644 118.146 23.5655C118.681 24.1666 119.517 24.4872 120.653 24.5273C121.723 24.554 122.653 24.387 123.442 24.0264C124.231 23.6524 124.866 23.1047 125.347 22.3834C125.842 21.6487 126.176 20.7671 126.35 19.7386Z" fill="white"/>
<path d="M157.02 12.0047L156.077 17.4144H141.494L142.437 12.0047H157.02ZM146.77 0.423765L141.695 29.5964H134.835L139.89 0.423765H146.77ZM163.619 0.423765L158.544 29.5964H151.704L156.759 0.423765H163.619Z" fill="white"/>
<path d="M198.903 14.0083L197.017 26.0099C196.121 27.0518 194.998 27.8666 193.647 28.4544C192.297 29.0287 190.879 29.4294 189.395 29.6565C187.924 29.897 186.54 30.0038 185.243 29.9771C183.21 29.9504 181.478 29.5497 180.047 28.7749C178.63 28.0002 177.5 26.9516 176.657 25.6293C175.815 24.3069 175.247 22.8042 174.952 21.1211C174.658 19.4381 174.625 17.6749 174.852 15.8316L175.073 14.2287C175.327 12.3319 175.822 10.5287 176.557 8.81892C177.306 7.09581 178.276 5.56638 179.466 4.23064C180.656 2.89489 182.067 1.84633 183.698 1.08496C185.343 0.323584 187.202 -0.0370669 189.274 0.00300542C191.427 0.0297203 193.253 0.437122 194.75 1.22521C196.262 1.99994 197.432 3.12197 198.261 4.59129C199.09 6.0606 199.571 7.85718 199.705 9.98101L193.146 9.96098C193.079 9.07939 192.912 8.30465 192.644 7.63678C192.39 6.95555 191.982 6.42126 191.421 6.03389C190.859 5.64652 190.09 5.43281 189.114 5.39273C187.937 5.3393 186.934 5.58642 186.105 6.13407C185.276 6.66837 184.581 7.38299 184.019 8.27794C183.471 9.17289 183.036 10.1413 182.715 11.1832C182.408 12.2251 182.187 13.2202 182.053 14.1686L181.833 15.8516C181.726 16.7466 181.659 17.6949 181.632 18.6967C181.619 19.6986 181.732 20.6403 181.973 21.5218C182.214 22.4034 182.648 23.1247 183.277 23.6857C183.919 24.2468 184.835 24.5406 186.025 24.5673C186.546 24.5807 187.048 24.5473 187.529 24.4672C188.024 24.387 188.499 24.2601 188.953 24.0865C189.422 23.8995 189.869 23.6657 190.297 23.3852L191.2 18.837H186.446L187.289 14.0083H198.903Z" fill="#EF7F1A"/>
<path d="M216.133 6.89544L205.382 29.5964H197.779L213.265 0.423765H218.119L216.133 6.89544ZM217.978 29.5964L215.01 6.19418L215.17 0.423765H219.744L225.139 29.5964H217.978ZM219.543 18.7168L218.58 24.1466H203.998L204.96 18.7168H219.543Z" fill="#EF7F1A"/>
<path d="M240.705 19.7186L233.283 19.6986L234.226 14.2688L240.946 14.2888C241.815 14.2888 242.611 14.1352 243.333 13.828C244.055 13.5074 244.65 13.0465 245.118 12.4455C245.586 11.8444 245.887 11.0964 246.021 10.2014C246.141 9.46675 246.121 8.77884 245.96 8.13769C245.8 7.49653 245.486 6.96891 245.018 6.55483C244.55 6.14075 243.908 5.91367 243.092 5.8736L238.298 5.85356L234.166 29.5964H227.306L232.361 0.423765L243.313 0.443801C245.225 0.483873 246.937 0.897954 248.448 1.68604C249.959 2.47413 251.129 3.5828 251.958 5.01205C252.787 6.44129 253.121 8.15772 252.961 10.1613C252.787 12.3252 252.098 14.1151 250.895 15.531C249.705 16.9469 248.207 18.0022 246.402 18.6967C244.61 19.378 242.711 19.7186 240.705 19.7186Z" fill="#EF7F1A"/>
</svg>

