<svg width="418" height="30" viewBox="0 0 418 30" fill="none" xmlns="http://www.w3.org/2000/svg">
<path fill-rule="evenodd" clip-rule="evenodd" d="M8.80768 25.4183C14.7482 25.4183 17.6162 22.081 17.6162 17.1766V5.36156H13.3726V17.0585C13.3726 19.8061 11.8217 21.6967 8.80768 21.6967C5.79364 21.6967 4.21354 19.8061 4.21354 17.0585V5.36156H0V17.2068C0 22.0506 2.86803 25.4183 8.80768 25.4183ZM163.548 3.61995L163.549 3.66749C163.549 5.69412 161.923 7.33491 159.915 7.33491C157.908 7.33491 156.282 5.69412 156.282 3.66749C156.282 1.64162 157.908 0 159.915 0H163.548V3.61995ZM43.2684 25.0635V21.3716H33.8463L43.0647 8.7292V5.36156H28.4033V9.05435H37.6217L28.4033 21.6665V25.0635H43.2684ZM63.6584 25.4183C67.9595 25.4183 70.4177 23.0254 71.8225 20.5736L68.2525 18.8314C67.4329 20.4557 65.6775 21.6967 63.6584 21.6967C60.1177 21.6967 57.5435 18.9492 57.5435 15.2268C57.5435 11.5061 60.1177 8.75868 63.6584 8.75868C65.6775 8.75868 67.4329 10.0292 68.2525 11.6233L71.8225 9.85063C70.4477 7.39967 67.9595 5.03715 63.6584 5.03715C57.8056 5.03715 53.2706 9.17234 53.2706 15.2268C53.2706 21.2822 57.8056 25.4183 63.6584 25.4183ZM100.494 25.0635L92.9731 5.36156H87.7654L80.2148 25.0635H84.9558L86.1845 21.7255H94.5531L95.7534 25.0635H100.494ZM93.413 18.0334H87.3256L90.3696 9.55571L93.413 18.0334ZM127.479 30L120.315 17.5599C122.422 17.0585 124.588 15.1982 124.588 11.7134C124.588 8.05091 122.101 5.36156 118.033 5.36156H108.904V25.0635H113.059V18.0637H116.102L122.708 30H127.479ZM117.419 14.3717H113.059V9.05435H117.419C119.086 9.05435 120.345 10.0587 120.345 11.7134C120.345 13.3666 119.086 14.3717 117.419 14.3717ZM143.072 25.0635C149.187 25.0635 153.43 21.1651 153.43 15.2268C153.43 9.29033 149.187 5.36156 143.072 5.36156H135.377V25.0635H143.072ZM143.072 21.3716H139.532V9.05435H143.072C147.082 9.05435 149.187 11.7413 149.187 15.2268C149.187 18.5651 146.934 21.3716 143.072 21.3716Z" fill="white"/>
<path fill-rule="evenodd" clip-rule="evenodd" d="M272.464 5.62869H254.275L272.193 25.5922L269.467 28L251.674 8.21739V28H247.59V2H272.475L272.464 5.62869ZM301.399 5.22174H280.642V12.5583H296.139V15.8139H280.642V24.7783H301.433V28H276.548V2H301.433L301.399 5.22174ZM330.345 15.8139H309.554V28H305.527V2H330.413L330.345 15.8139ZM359.449 28H334.428V2H359.449V28ZM388.373 5.18783H367.582V12.5243H388.373V28H363.487V24.7783H384.278V15.8139H363.51V2H388.395L388.373 5.18783ZM417.579 5.18783H406.573V28H402.501V5.22174H392.32V2H417.59L417.579 5.18783ZM355.37 5.22144H338.504V24.778H355.37V5.22144ZM309.552 5.22144H326.27V12.558H309.552V5.22144Z" fill="white"/>
<path d="M196.377 3L193.549 5.82843L202.741 15.0208L193.549 24.2132L196.377 27.0416L205.569 17.8492L214.762 27.0416L217.59 24.2132L208.398 15.0208L217.59 5.82843L214.762 3L205.569 12.1924L196.377 3Z" fill="white"/>
</svg>
