<svg width="30" height="25" viewBox="0 0 30 25" fill="none" xmlns="http://www.w3.org/2000/svg">
<path fill-rule="evenodd" clip-rule="evenodd" d="M2.05406 10.7199C10.1055 7.22326 15.4654 4.89986 18.1569 3.77266C25.8172 0.575101 27.4275 0.023004 28.4627 0C28.6927 0 29.1988 0.0460084 29.5439 0.322057C29.8199 0.552097 29.8889 0.85115 29.9349 1.08119C29.9809 1.31123 30.027 1.79431 29.9809 2.16238C29.5669 6.53314 27.7726 17.138 26.8524 22.0149C26.4613 24.0852 25.7022 24.7753 24.9661 24.8443C23.3558 24.9824 22.1366 23.7862 20.5953 22.774C18.1569 21.1867 16.7996 20.1975 14.4302 18.6333C11.6927 16.8389 13.4641 15.8498 15.0283 14.2395C15.4424 13.8254 22.5046 7.38429 22.6427 6.80919C22.6657 6.74018 22.6657 6.46413 22.5046 6.32611C22.3436 6.18808 22.1136 6.23409 21.9295 6.2801C21.6765 6.32611 17.8118 8.90256 10.2895 13.9864C9.18531 14.7456 8.19613 15.1136 7.29898 15.0906C6.3098 15.0676 4.42348 14.5385 2.99723 14.0785C1.27192 13.5264 -0.108317 13.2273 0.00670271 12.2611C0.0757148 11.7551 0.765835 11.249 2.05406 10.7199Z" fill="white"/>
</svg>
